<svg xmlns="http://www.w3.org/2000/svg" width="104" height="26" viewBox="0 0 104 26" fill="none" role="img" aria-label="Apex">
<title>Apex</title>
<g fill="#FFFFFF">
<path d="M23.5911 6.61824V25.5H20.5226V18.4121H3.06851V25.5H0V6.61824C0 2.53895 3.93706 0.5 11.8098 0.5C19.6826 0.5 23.5911 2.53895 23.5911 6.61686M20.5226 15.2942V6.61824C20.5226 5.48119 19.2851 4.64845 16.8115 4.11866C15.2459 3.78529 13.5742 3.61791 11.7962 3.61791C10.0183 3.61791 8.33699 3.78529 6.751 4.11866C4.29646 4.64845 3.06851 5.48119 3.06851 6.61824V15.2942H20.5226Z"/>
<path d="M51.1751 12.4999C51.1751 16.5779 47.238 18.6168 39.3652 18.6168C37.4348 18.6168 35.6405 18.4605 33.981 18.1465L34.6481 15.0881C36.5431 15.4408 38.1196 15.5777 39.3761 15.5003C45.1959 15.1669 48.1065 14.1668 48.1065 12.4999V6.61824C48.1065 5.6375 47.1019 4.87254 45.0911 4.32477C43.4289 3.85445 41.5243 3.61929 39.3802 3.61929C37.2361 3.61929 35.3506 3.85445 33.6679 4.32477C31.6572 4.87393 30.6525 5.63888 30.6525 6.61824V25.5H27.584V6.61824C27.584 2.54034 31.5102 0.5 39.3652 0.5C47.2203 0.5 51.1751 2.53895 51.1751 6.61824V12.4999Z"/>
<path d="M76.2989 3.29422L73.7273 5.11739C72.1468 4.11727 69.5466 3.61791 65.924 3.61791C64.1134 3.61791 62.4457 3.77422 60.9237 4.08684C58.476 4.59589 57.2535 5.42586 57.2535 6.57951V19.4219C57.2535 20.5755 58.4773 21.4055 60.9237 21.9145C62.4266 22.2272 64.0929 22.3835 65.924 22.3835C69.5466 22.3835 72.1468 21.8841 73.7273 20.884L76.2989 22.7072C74.5047 24.5704 71.04 25.5014 65.9076 25.5014C58.0921 25.5014 54.1849 23.4818 54.1849 19.4426V6.55876C54.1849 2.51959 58.0921 0.5 65.9076 0.5C71.0604 0.5 74.5237 1.43095 76.2989 3.29422ZM69.8447 14.4407H59.4534V11.3228H69.8447V14.4407Z"/>
<path d="M104 19.794V25.5H100.931V19.794C100.931 18.834 99.6178 17.7744 96.989 16.618C96.0415 16.2265 94.4473 15.6469 92.2051 14.8833C91.1419 15.2361 89.5573 15.8143 87.4499 16.618C84.8021 17.7744 83.4774 18.834 83.4774 19.794V25.5H80.4089V19.794C80.4089 18.2447 81.2489 16.8531 82.9275 15.6179C83.8341 14.9317 85.3493 14.1281 87.4717 13.2068C85.3303 12.168 83.7756 11.2356 82.8117 10.4126C81.2094 9.04037 80.4089 7.48141 80.4089 5.73571V0.5H83.4774V5.73571C83.4774 7.02908 84.6469 8.28509 86.9857 9.49961C88.087 10.0681 89.8268 10.7639 92.2051 11.5884C94.6011 10.7653 96.3505 10.0695 97.4532 9.49961C99.773 8.28371 100.933 7.02908 100.933 5.73571V0.5H104.001V5.73571C104.001 7.48141 103.191 9.04037 101.57 10.4126C100.605 11.2356 99.0514 12.168 96.91 13.2068C99.0324 14.1281 100.557 14.9331 101.483 15.6179C103.161 16.8531 104.001 18.2461 104.001 19.794"/>
</g>
</svg>
